# xmcd CD database file
#
# Track frame offsets:
#	150
#	17625
#	40185
#
# Disc length: 796 seconds
#
# Revision: 0
# Processed by: cddbd v1.5.1PL2 Copyright (c) Steve Scherf et al.
# Submitted via: CDex 1.51
#
DISCID=19031a03
DTITLE=アンティック-珈琲店- - 10's コレクション マァチ
DYEAR=2006
DGENRE=JPop
TTITLE0=メープルガンマン
TTITLE1=校廻〜koukai〜
TTITLE2=FUNKY FRESH DAYS
EXTD=YEAR: 2006
EXTT0=
EXTT1=
EXTT2=
PLAYORDER=
